<svg id="Capa_1" color='white' enable-background="new 0 0 512 512" height="512" viewBox="0 0 512 512" width="512" xmlns="http://www.w3.org/2000/svg"><g><path d="m502.378 295.543-79.733-138.101 12.977-22.476c4.142-7.174 1.678-16.352-5.49-20.49l-135.454-78.204v-21.272c0-8.284-6.716-15-15-15h-257.067c-8.284 0-15 6.716-15 15v353.467c0 8.284 6.716 15 15 15h65.333v113.533c0 8.284 6.716 15 15 15h353.467c8.284 0 15-6.716 15-15v-166.257l25.477-14.709c7.175-4.142 9.629-13.323 5.49-20.491zm-207.7-224.63 107.463 62.044-107.463 186.131zm-257.067 282.554v-323.467h227.067v323.467zm219.897 30-17.101 29.62-51.302-29.62zm-139.564 98.533v-85.166l48.667 85.166zm34.992-84.775 71.663 41.375-35.831 20.687zm288.475 84.775h-230.131l230.131-133.841zm-163.231-74.335 127.147-220.218 63.571 110.106z"/><path d="m151.897 150.367-.756.756-.757-.756c-18.2-18.201-48.042-18.609-66.649 0-18.378 18.377-18.378 48.28 0 66.658l56.803 56.803c2.929 2.93 6.767 4.394 10.606 4.394 3.838 0 7.678-1.465 10.606-4.394l56.804-56.803c18.378-18.377 18.378-48.28 0-66.658-18.263-18.265-48.137-18.293-66.657 0zm45.445 45.445-46.198 46.197-46.197-46.197c-6.681-6.681-6.681-17.551 0-24.232 6.614-6.613 17.463-6.76 24.227.003l11.367 11.359c5.859 5.855 15.354 5.854 21.209-.003l11.294-11.294c6.757-6.675 17.657-6.705 24.297-.065 6.681 6.681 6.681 17.551.001 24.232z"/><path d="m86.877 110.333c8.284 0 15-6.716 15-15v-16.066c0-8.284-6.716-15-15-15s-15 6.716-15 15v16.067c0 8.284 6.716 14.999 15 14.999z"/><path d="m215.411 273.133c-8.284 0-15 6.716-15 15v16.067c0 8.284 6.716 15 15 15s15-6.716 15-15v-16.067c0-8.284-6.716-15-15-15z"/></g></svg>